<svg width="149" height="1371" viewBox="0 0 149 1371" fill="none" xmlns="http://www.w3.org/2000/svg">
<path d="M51 186.5L51 242.5L108 242.5L51 186.5Z" fill="#EEEEEE"/>
<path d="M108 57L108 -2.53526e-06L50 0L108 57Z" fill="#EEEEEE"/>
<path d="M108 80L51 24V163.5L108 219.5V80Z" fill="#EEEEEE"/>
<path d="M108 499L142 499L142 534L108 499Z" fill="#EFEFEF"/>
<path d="M-3.36578e-06 1148L0 1071L78 1071L-3.36578e-06 1148Z" fill="#F3F3F3"/>
<path d="M85 817.018L149 754V910.982L85 974V817.018Z" fill="#F3F3F3"/>
<path d="M0 1201.58L78 1126L78 1295.42L3.84758e-06 1371L0 1201.58Z" fill="#F3F3F3"/>
<path d="M142 547.462L108 513V562.538L142 597V547.462Z" fill="#EFEFEF"/>
</svg>
