<svg width="1638" height="626" viewBox="0 0 1638 626" fill="none" xmlns="http://www.w3.org/2000/svg">
<path d="M63 219.5L63 275.5L120 275.5L63 219.5Z" fill="#F4F4F4"/>
<path d="M120 90L120 33L62 33L120 90Z" fill="#F4F4F4"/>
<path d="M120 113L63 57V196.5L120 252.5V113Z" fill="#F4F4F4"/>
<path d="M1450 151.642L1605 0V474.358L1450 626V151.642Z" fill="#F7F7F7"/>
<path d="M1612 363L1612 445L1528 445L1612 363Z" fill="#EDEDED"/>
<path d="M1528 270L1528 186L1613 186L1528 270Z" fill="#EDEDED"/>
<path d="M1638 455L1638 506L1586 506L1638 455Z" fill="#ECECEC"/>
<path d="M1585 481L1585 429L1638 429L1585 481Z" fill="#ECECEC"/>
<path d="M1528 303.021L1612 221V328.979L1528 411V303.021Z" fill="#EDEDED"/>
<path d="M0.00018907 390.078L0.000190735 352L38.7466 352L0.00018907 390.078Z" fill="#EEEEEE"/>
<path d="M0 405.443L38.0784 368.033V520L0 557.41V405.443Z" fill="#EEEEEE"/>
</svg>
