<svg width="1664" height="816" viewBox="0 0 1664 816" fill="none" xmlns="http://www.w3.org/2000/svg">
<path d="M169 351.5L169 407.5L112 407.5L169 351.5Z" fill="#F0F0F0"/>
<path d="M112 222L112 165L170 165L112 222Z" fill="#F0F0F0"/>
<path d="M112 245L169 189V328.5L112 384.5V245Z" fill="#F0F0F0"/>
<path d="M58 497L58 554L0 554L58 497Z" fill="#F0F0F0"/>
<path d="M-6.30625e-06 504L-3.8147e-06 447L58 447L-6.30625e-06 504Z" fill="#F0F0F0"/>
<path d="M64 691L64 748L122 748L64 691Z" fill="#F2F2F2"/>
<path d="M244.5 691L302.5 748L161 748L105 691L244.5 691Z" fill="#F2F2F2"/>
<path d="M987 709L987 672L949 672L987 709Z" fill="#D0D0D0" fill-opacity="0.3"/>
<path d="M869.59 709L832 672L923.706 672L960 709L869.59 709Z" fill="#D0D0D0" fill-opacity="0.3"/>
</svg>
