<?xml version="1.0" encoding="UTF-8" standalone="no"?>
<!DOCTYPE svg PUBLIC "-//W3C//DTD SVG 1.1//EN" "http://www.w3.org/Graphics/SVG/1.1/DTD/svg11.dtd">
<svg width="100%" height="100%" viewBox="0 0 8334 8334" version="1.1" xmlns="http://www.w3.org/2000/svg" xmlns:xlink="http://www.w3.org/1999/xlink" xml:space="preserve" xmlns:serif="http://www.serif.com/" style="fill-rule:evenodd;clip-rule:evenodd;stroke-linejoin:round;stroke-miterlimit:2;">
    <g transform="matrix(2.03976,-0.152215,0.152387,2.04206,-4268.18,700.72)">
        <path d="M3865.95,3270.85C4367.75,3317.23 4829.42,3125.45 5092.19,2652.75L5092.76,2652.02L5094.56,2648.66C5261.43,2362.89 5310.43,2033.78 5238.15,1714.88C5238.25,1708.72 5236.82,1702.59 5234.09,1697.04C5140.85,1310.02 4876.66,990.902 4513.39,826.222L4509.6,824.2C4252.41,708.916 3963.52,681.919 3689.75,746.7C3678.76,748.522 3668.67,754.784 3662.26,764.794C3650.26,783.595 3655.88,808.45 3674.51,820.38C3728.08,854.253 3783.79,881.957 3840.8,903.64C3858.58,910.305 3867.8,929.939 3861.81,947.844L3860.64,951.433C3857.4,960.89 3851.3,967.824 3842.27,972.044C3833.28,976.32 3823.85,976.806 3814.67,973.179C3748.99,948.308 3684.95,915.996 3623.84,876.208C3595.08,858.325 3565.36,834.685 3538.48,813.979C3521.24,799.995 3495.97,802.684 3482.04,819.801C3468.01,837.075 3470.61,862.337 3487.86,876.43C3502.13,887.948 3516.55,899.134 3530.68,909.556L3532.7,911.049C3545.77,920.584 3560.92,930.997 3578.14,942.257L3580.13,943.616C3679.87,1008.58 3786.41,1054.9 3895.63,1083.43C3906.13,1086.16 3913.95,1092.7 3918.59,1102.58C3923.19,1112.36 3923.24,1122.67 3918.73,1132.49L3917.12,1135.93C3909.94,1151.52 3892.84,1159.62 3876.17,1155.24C3759.66,1124.68 3645.86,1075.19 3539.36,1005.85C3512.99,988.716 3487.2,970.239 3462.15,950.834C3436.58,931.036 3412.19,910.452 3389.03,889.324C3372.75,874.405 3347.2,875.523 3332.27,891.867C3317.33,908.26 3318.48,933.708 3334.87,948.678C3359.95,971.643 3386.07,993.718 3412.89,1014.49C3439.06,1034.82 3466.9,1054.49 3495.76,1073.19C3559.19,1114.62 3625.07,1149.35 3692.62,1177.54C3701.71,1181.54 3708.22,1188.2 3711.92,1197.42C3715.51,1206.77 3715.18,1216.07 3710.93,1225.09L3709.27,1228.63C3701.22,1245.8 3681.09,1253.47 3663.65,1246.19C3592.1,1216.2 3522.36,1179.48 3455.1,1135.66C3419.53,1112.47 3385.19,1087.74 3352.59,1061.66C3320.17,1035.74 3288.44,1007.79 3257.74,977.999C3241.72,962.553 3216.21,962.951 3200.71,978.893C3185.18,994.779 3185.69,1020.34 3201.57,1035.86C3232.79,1066.04 3266.5,1095.61 3302.57,1124.46C3336.96,1151.97 3373.35,1178.14 3411.23,1202.85C3596.18,1323.22 3799.06,1393.87 4004.26,1418.04C4014.87,1419.33 4023.46,1424.64 4029.4,1433.57C4035.4,1442.35 4036.98,1452.35 4034.15,1462.7L4033.06,1466.36C4028.25,1483.19 4012.29,1493.92 3994.9,1491.88C3778.85,1466.32 3565.08,1391.99 3370.65,1265.38C3329.46,1238.48 3289.33,1209.36 3250.52,1178.14C3211.41,1146.6 3174.58,1113.83 3140.38,1080.09C3124.65,1064.49 3099.14,1064.6 3083.71,1080.32C3068,1096.12 3068.13,1121.5 3083.86,1137.1C3121.06,1173.8 3159.76,1208.48 3200.06,1240.8C3239.64,1272.72 3281.99,1303.27 3326.71,1332.51C3474.21,1428.56 3632.11,1496.14 3793.74,1536.57C3803.61,1539.07 3811.16,1544.91 3816,1553.81C3820.92,1562.66 3821.83,1572.17 3818.71,1581.86L3817.47,1585.48C3811.79,1603.01 3793.37,1613.21 3775.36,1608.66C3606.03,1566.24 3440.79,1495.44 3286.13,1394.86L3284.25,1393.73C3240.51,1365.13 3197.86,1334.07 3156.62,1301.02C3114.66,1267.46 3074.63,1231.9 3036.81,1194.99C3020.91,1179.52 2995.43,1179.76 2979.92,1195.71C2964.36,1211.53 2964.72,1237.09 2980.53,1252.54C3020.25,1291.36 3062.16,1328.6 3106.18,1363.74C3148.26,1397.53 3193.01,1430.05 3240.5,1460.98L3242.45,1462.32C3530.9,1650.09 3855.41,1738.91 4175.67,1737.05C4198.2,1736.95 4220.69,1736.34 4243.03,1735.32C4262.36,1734.45 4278.85,1749.26 4280.06,1768.57L4280.28,1772.12C4280.77,1782.01 4277.79,1790.5 4271.17,1797.88C4264.59,1805.09 4256.34,1809 4246.54,1809.48C4218.83,1810.78 4190.85,1811.45 4163.03,1811.42C3832.81,1810.89 3498.91,1718.11 3201.67,1524.56L3199.76,1523.37C3155.19,1494.24 3111.88,1462.9 3069.85,1429.74C3026.99,1395.98 2985.84,1360.33 2946.94,1323.24C2930.82,1308.06 2905.38,1308.57 2889.99,1324.75C2874.72,1340.68 2875.36,1366.21 2891.4,1381.54C2932.14,1420.32 2975.1,1457.5 3019.95,1492.88C3062.84,1526.8 3108.26,1559.45 3156.01,1590.62L3157.92,1591.98C3393.62,1745.46 3651.2,1838.31 3912.4,1874.55C3923.01,1876.03 3931.59,1881.42 3937.35,1890.54C3943.13,1899.62 3944.41,1909.7 3941.28,1919.91L3940.2,1923.48C3935.05,1940.2 3918.86,1950.47 3901.64,1948.04C3630.02,1910.33 3362.16,1813.87 3117.34,1654.22C3073.82,1625.87 3031.6,1595.84 2990.77,1564.33C2949.77,1532.65 2909.96,1499.43 2871.89,1464.73C2855.46,1449.78 2829.87,1451.02 2815.03,1467.51C2800.08,1483.94 2801.34,1509.41 2817.76,1524.36C2857.2,1560.15 2898.46,1594.8 2941.43,1627.92C2983.58,1660.43 3027.65,1691.71 3073.55,1721.56C3248.85,1835.73 3435.51,1918.97 3626.82,1972.57C3636.5,1975.25 3643.83,1981.2 3648.57,1990.08C3653.24,1998.99 3653.95,2008.49 3650.68,2017.96L3649.37,2021.73C3643.39,2039.41 3624.53,2049.28 3606.53,2044.22C3407.96,1988.57 3214.64,1902.25 3032.9,1783.83C2994.48,1758.81 2957.07,1732.72 2920.82,1705.5C2884.33,1678.25 2848.66,1649.71 2813.88,1619.91C2796.99,1605.49 2771.61,1607.58 2757.16,1624.41C2742.74,1641.3 2744.75,1666.68 2761.65,1681.13C2797.15,1711.47 2834.2,1741.14 2872.62,1769.89C2910.23,1798.07 2949.15,1825.25 2989.23,1851.23C3335.03,2076.38 3721.48,2189.81 4105.76,2200.52C4148.79,2201.7 4191.88,2201.6 4234.89,2200.24C4245.52,2199.91 4254.95,2203.85 4262.11,2211.78C4269.34,2219.76 4272.33,2229.41 4270.97,2240.07L4270.51,2243.77C4268.27,2260.98 4253.98,2273.97 4236.59,2274.52C4178.81,2276.34 4120.96,2275.97 4062.95,2273.38C3678.77,2255.77 3293.95,2138.57 2948.58,1913.68C2919.38,1894.7 2889.94,1874.42 2860.28,1853.13C2830.99,1831.83 2802.8,1810.55 2775.97,1789.23C2758.68,1775.45 2733.35,1778.35 2719.5,1795.65C2705.74,1812.98 2708.71,1838.23 2725.95,1852.04C2755.02,1875.2 2784.28,1897.29 2813.3,1918.33C2842.17,1939.08 2872.74,1960.02 2904.64,1980.84C3250.28,2205.97 3633.78,2326.82 4017.76,2351.4C4027.74,2351.99 4035.9,2356.1 4042.34,2363.63C4048.86,2371.13 4051.66,2380.04 4050.7,2389.83L4050.35,2393.55C4048.65,2412.57 4032.02,2426.75 4012.99,2425.53C4010.11,2425.39 4007.32,2425.13 4004.44,2424.99C3610.83,2398.5 3218.19,2273.75 2864.06,2043.26C2830.61,2022.83 2794.07,1995.75 2761.96,1972.96C2744.01,1960.03 2718.88,1964.04 2705.9,1981.91C2692.83,1999.72 2696.81,2024.97 2714.72,2037.93C2750.1,2063 2784.67,2086.22 2820.25,2110.68C3186.23,2348.98 3592.08,2477.77 3998.96,2505.18C4061.93,2509.36 4124.85,2511.22 4187.75,2510.66C4198.04,2510.5 4206.84,2514.29 4213.87,2521.7C4220.8,2529.17 4224.05,2538.33 4223.32,2548.49L4223.05,2552.28C4221.75,2570.61 4206.62,2584.79 4188.15,2585.05C4102.02,2585.87 4015.68,2582.26 3929.52,2574.19C3532.37,2537.31 3138.01,2405.98 2780.49,2173.27L2778.34,2171.92C2759.97,2159.34 2734.93,2164.1 2722.37,2182.5C2709.94,2200.86 2714.57,2225.93 2732.95,2238.39L2735.89,2240.29C3064.74,2454.38 3423.89,2585.37 3788.37,2638.3C3798.72,2639.8 3807.11,2645.1 3812.78,2653.87C3818.57,2662.69 3820.14,2672.4 3817.39,2682.45L3816.41,2686.13C3811.67,2703.39 3794.94,2714.34 3777.27,2711.75C3452.39,2664.47 3131.64,2557.02 2831.87,2385.81C2812.62,2374.81 2788.14,2381.52 2777.16,2400.75C2766.18,2419.95 2772.86,2444.45 2792.1,2455.45C3144.19,2656.63 3524.23,2772.38 3906.43,2808.13C3965.58,2813.61 4024.62,2817.32 4083.7,2818.99C4094.67,2819.33 4103.92,2824.02 4110.52,2832.68C4117.27,2841.29 4119.56,2851.41 4117.15,2862.02L4116.32,2865.81C4112.5,2882.49 4097.88,2893.91 4080.77,2893.36C4020.51,2891.66 3960.27,2887.98 3900.01,2882.33C3573.93,2851.81 3249.21,2764.59 2941.5,2617.72C2921.55,2608.21 2897.5,2616.78 2887.93,2636.76C2878.47,2656.79 2887.02,2680.81 2907.03,2690.29C3204.42,2832.25 3517.04,2920.08 3831.98,2956.15C3841.96,2957.21 3850.2,2961.93 3856.28,2969.95C3862.27,2977.96 3864.47,2987.18 3862.88,2997.11L3862.17,3000.76C3859,3019.28 3841.99,3032.15 3823.39,3029.95C3595.21,3003.81 3367.99,2951.25 3146.91,2871.26C3125.95,2863.65 3102.86,2874.54 3095.38,2895.46C3087.84,2916.27 3098.63,2939.38 3119.57,2946.96C3367.69,3036.62 3623.27,3092.81 3879.61,3116.59C3897.27,3118.24 3915.04,3119.73 3932.73,3121.08C3942.96,3121.8 3951.43,3126.33 3957.76,3134.47C3964.02,3142.46 3966.56,3151.79 3964.89,3161.84L3964.34,3165.63C3961.35,3183.76 3945.16,3196.59 3926.86,3195.26C3908.91,3193.97 3891.22,3192.44 3873.44,3190.85C3812.25,3185.1 3749.75,3177.49 3686.61,3167.76C3664.62,3164.43 3644,3179.62 3640.6,3201.54C3637.31,3223.51 3652.56,3244.06 3674.42,3247.41C3737.07,3257.02 3801,3264.85 3865.95,3270.85Z" style="fill:rgb(250,185,20);"/>
    </g>
</svg>
