<svg width="1920" height="564" viewBox="0 0 1920 564" fill="none" xmlns="http://www.w3.org/2000/svg">
<rect width="1920" height="564" transform="matrix(1 0 0 -1 0 564)" fill="#313131"/>
<path fill-rule="evenodd" clip-rule="evenodd" d="M112.96 825.964C-12.831 850.672 -135.003 814.811 -214.527 703.544L-214.691 703.376L-215.239 702.584C-265.345 635.527 -286.794 554.558 -277.252 472.97C-277.446 471.433 -277.253 469.863 -276.714 468.405C-263.736 369.245 -205.605 282.585 -118.143 231.933L-117.239 231.329C-55.2805 195.794 17.13 181.495 88.2332 190.529C91.0661 190.697 93.7931 191.998 95.6913 194.332C99.2464 198.717 98.5061 205.076 94.1164 208.544C81.4821 218.41 68.1363 226.79 54.2961 233.699C49.9769 235.83 48.1816 240.978 50.1903 245.296L50.5852 246.162C51.6654 248.441 53.4005 250.015 55.803 250.833C58.1969 251.667 60.5981 251.542 62.823 250.395C78.7711 242.463 94.0995 232.713 108.481 221.172C115.272 215.951 122.148 209.266 128.386 203.389C132.367 199.443 138.84 199.455 142.837 203.368C146.865 207.319 146.9 213.7 142.919 217.673C139.622 220.925 136.278 224.097 132.987 227.071L132.516 227.497C129.469 230.222 125.918 233.22 121.867 236.484L121.401 236.876C97.9294 255.719 72.2241 270.08 45.3514 280.065C42.7676 281.022 40.967 282.861 40.0635 285.451C39.1674 288.016 39.438 290.594 40.8498 292.93L41.3519 293.748C43.5983 297.456 48.1509 299.034 52.2517 297.503C80.9146 286.82 108.371 271.477 133.434 251.364C139.641 246.392 145.664 241.1 151.474 235.596C157.405 229.98 163.015 224.198 168.299 218.312C172.012 214.158 178.512 213.77 182.742 217.464C186.975 221.17 187.383 227.56 183.644 231.73C177.924 238.125 171.917 244.325 165.696 250.217C159.628 255.982 153.118 261.626 146.324 267.053C131.401 279.066 115.673 289.467 99.3425 298.278C97.1506 299.516 95.6852 301.35 95.0016 303.751C94.3494 306.182 94.6884 308.497 96.0124 310.64L96.53 311.482C99.0401 315.562 104.348 316.953 108.564 314.678C125.858 305.312 142.509 294.312 158.336 281.603C166.706 274.877 174.722 267.799 182.261 260.429C189.758 253.104 197.025 245.289 203.98 237.042C207.612 232.763 214.083 232.195 218.446 235.774C222.815 239.338 223.388 245.74 219.793 250.034C212.717 258.392 204.993 266.664 196.652 274.817C188.7 282.591 180.204 290.082 171.291 297.248C127.765 332.165 78.333 355.125 27.0366 366.53C24.3854 367.13 22.3562 368.681 21.0974 371.068C19.8193 373.419 19.6939 375.96 20.6949 378.472L21.0714 379.359C22.7517 383.439 27.0879 385.703 31.4353 384.739C85.4409 372.703 137.529 348.539 183.284 311.815C192.975 304.015 202.337 295.688 211.307 286.872C220.344 277.967 228.769 268.814 236.503 259.488C240.057 255.178 246.52 254.539 250.859 258.064C255.271 261.602 255.935 267.948 252.381 272.258C243.969 282.403 235.122 292.082 225.806 301.212C216.66 310.224 206.776 318.966 196.255 327.443C161.544 355.303 123.417 376.32 83.6004 390.649C81.1698 391.532 79.4184 393.189 78.4374 395.54C77.4347 397.88 77.4655 400.281 78.5217 402.621L78.9352 403.493C80.8551 407.726 85.7995 409.793 90.235 408.185C131.947 393.158 171.844 371.144 208.243 341.964L208.688 341.633C218.978 333.342 228.925 324.465 238.46 315.127C248.163 305.643 257.322 295.709 265.885 285.496C269.486 281.214 275.945 280.608 280.31 284.189C284.685 287.736 285.296 294.133 281.717 298.408C272.726 309.148 263.136 319.55 252.955 329.483C243.228 339.028 232.79 348.325 221.614 357.296L221.157 357.682C153.275 412.149 73.5431 442.83 -7.60359 450.737C-13.3113 451.301 -19.0229 451.736 -24.7079 452.065C-29.6265 452.353 -33.3953 456.485 -33.1712 461.343L-33.1293 462.236C-32.9816 464.72 -31.9938 466.764 -30.1148 468.435C-28.2506 470.065 -26.0541 470.827 -23.5594 470.691C-16.507 470.291 -9.40349 469.727 -2.35977 468.993C81.2433 460.228 163.244 428.312 233.193 372.171L233.644 371.824C244.13 363.378 254.236 354.414 263.968 345.028C273.893 335.47 283.334 325.485 292.165 315.199C295.83 310.984 302.286 310.446 306.627 314.088C310.931 317.67 311.471 324.067 307.83 328.317C298.58 339.074 288.723 349.489 278.338 359.503C268.409 369.102 257.805 378.449 246.57 387.487L246.124 387.877C190.657 432.395 127.984 462.333 62.8386 478.218C60.1926 478.865 58.168 480.437 56.96 482.867C55.7458 485.287 55.6986 487.84 56.7717 490.309L57.1433 491.173C58.9067 495.217 63.2885 497.361 67.5821 496.303C135.325 479.779 200.502 448.67 258.109 402.371C268.35 394.148 278.216 385.539 287.69 376.597C297.201 367.608 306.369 358.265 315.056 348.598C318.806 344.432 325.319 344.073 329.53 347.806C333.767 351.522 334.148 357.92 330.401 362.085C321.397 372.061 311.901 381.799 301.93 391.2C292.15 400.426 281.85 409.396 271.048 418.056C229.795 451.171 184.816 476.854 137.845 495.25C135.468 496.173 133.775 497.851 132.819 500.195C131.881 502.543 131.962 504.936 133.051 507.217L133.486 508.125C135.486 512.388 140.533 514.361 144.952 512.626C193.704 493.528 240.285 466.901 283.052 432.555C292.093 425.298 300.849 417.8 309.28 410.049C317.772 402.285 326.02 394.22 334.008 385.864C337.889 381.818 344.373 381.677 348.494 385.506C352.61 389.35 352.798 395.745 348.916 399.798C340.76 408.309 332.193 416.692 323.254 424.882C314.505 432.908 305.397 440.718 295.961 448.258C214.584 513.566 119.844 552.016 22.8314 564.738C11.9678 566.158 1.05381 567.259 -9.87446 568.044C-12.5752 568.239 -14.8548 569.47 -16.4499 571.639C-18.0615 573.823 -18.5536 576.313 -17.9164 578.941L-17.6981 579.854C-16.6581 584.096 -12.6828 586.969 -8.26423 586.652C6.41671 585.597 21.0552 583.992 35.6732 581.828C132.471 567.385 226.694 528.035 307.97 462.803C314.843 457.296 321.74 451.458 328.666 445.362C335.498 439.273 342.051 433.218 348.259 427.189C352.259 423.293 358.753 423.355 362.735 427.317C366.695 431.288 366.637 437.676 362.651 441.578C355.926 448.126 349.124 454.412 342.353 460.429C335.613 466.369 328.447 472.402 320.942 478.439C239.604 543.738 145.815 583.965 49.2595 600.145C46.7486 600.554 44.7952 601.794 43.3714 603.844C41.9264 605.889 41.4622 608.189 41.9743 610.611L42.1651 611.531C43.118 616.24 47.7186 619.35 52.5039 618.547C53.2293 618.437 53.9286 618.299 54.654 618.189C153.595 601.279 249.592 559.838 332.932 492.978C340.841 486.998 349.35 479.275 356.854 472.74C361.044 469.039 367.518 469.384 371.296 473.511C375.094 477.62 374.78 484.035 370.601 487.742C362.331 494.932 354.215 501.639 345.878 508.682C259.751 577.804 160.521 620.6 58.2447 638.086C42.4143 640.777 26.5329 642.887 10.5902 644.391C7.98015 644.62 5.85592 645.797 4.27936 647.833C2.72976 649.881 2.15854 652.255 2.6225 654.775L2.79498 655.715C3.62772 660.262 7.84847 663.411 12.5325 662.993C34.3647 660.946 56.1284 657.787 77.724 653.518C177.276 633.919 273.528 590.789 357.665 523.285L358.172 522.891C362.478 519.267 368.95 519.802 372.636 524.072C376.288 528.336 375.804 534.722 371.492 538.317L370.8 538.869C293.411 600.97 206.066 643.095 115.227 665.85C112.647 666.496 110.668 668.04 109.474 670.38C108.25 672.735 108.119 675.203 109.091 677.643L109.441 678.537C111.115 682.727 115.652 685.026 120.055 683.917C201.022 663.608 279.29 628.37 350.494 577.746C355.066 574.493 361.449 575.53 364.758 580.049C368.065 584.561 367.047 590.858 362.477 594.11C278.849 653.592 185.795 692.455 89.9976 711.38C75.1703 714.296 60.3222 716.766 45.408 718.728C42.6395 719.1 40.4261 720.514 38.9927 722.85C37.52 725.179 37.2182 727.768 38.12 730.356L38.4343 731.282C39.8598 735.351 43.8755 737.822 48.193 737.238C63.4052 735.238 78.558 732.743 93.6617 729.756C175.393 713.605 255.221 683.319 329.104 638.57C333.895 635.671 340.22 637.185 343.192 641.928C346.138 646.686 344.633 652.913 339.826 655.805C268.422 699.057 191.674 729.179 112.916 746.427C110.418 746.952 108.461 748.347 107.142 750.511C105.845 752.669 105.542 755.031 106.217 757.471L106.497 758.365C107.808 762.91 112.469 765.682 117.119 764.646C174.18 752.148 230.272 733.073 284.056 707.303C289.155 704.853 295.301 706.971 297.769 712.004C300.25 717.008 298.153 723.065 293.059 725.507C232.693 754.401 169.52 775.125 105.263 787.768C100.836 788.642 96.3776 789.479 91.9353 790.279C89.3647 790.726 87.3444 792.08 85.9651 794.28C84.5995 796.44 84.2126 798.838 84.9116 801.306L85.1549 802.239C86.4101 806.692 90.8622 809.475 95.4596 808.665C99.9694 807.873 104.407 807.028 108.865 806.166C124.202 803.129 139.819 799.594 155.54 795.512C161.017 794.105 166.655 797.362 168.118 802.751C169.555 808.156 166.258 813.69 160.815 815.099C145.215 819.138 129.241 822.766 112.96 825.964Z" fill="#333333"/>
<path fill-rule="evenodd" clip-rule="evenodd" d="M1943.31 179.913C2003.93 151.47 2044.28 98.9398 2043.32 28.1621L2043.34 28.0418L2043.32 27.5432C2043.66 -15.7827 2027.63 -56.076 1998.35 -87.0866C1997.96 -87.7859 1997.39 -88.3793 1996.71 -88.8202C1960.55 -126.085 1909.25 -144.248 1856.74 -138.399L1856.17 -138.372C1819.08 -134.085 1784.16 -117.743 1757.02 -92.0961C1755.88 -91.1541 1755.13 -89.7732 1755.05 -88.2177C1754.91 -85.2987 1757.19 -82.8809 1760.12 -82.789C1768.49 -82.5733 1776.71 -83.1948 1784.67 -84.5806C1787.15 -85.0237 1789.5 -83.4344 1789.99 -81.0193L1790.09 -80.5372C1790.34 -79.2565 1790.1 -78.0677 1789.34 -76.9875C1788.59 -75.9037 1787.54 -75.2165 1786.25 -75.0086C1777.08 -73.3998 1767.61 -72.7377 1757.98 -73.1128C1753.5 -73.1946 1748.54 -73.8594 1744.09 -74.3847C1741.19 -74.8008 1738.47 -72.8035 1738 -69.9444C1737.53 -67.061 1739.49 -64.3948 1742.39 -63.9671C1744.79 -63.6291 1747.18 -63.3385 1749.48 -63.1144L1749.81 -63.082C1751.94 -62.8865 1754.36 -62.7318 1757.08 -62.6207L1757.4 -62.6013C1773.12 -61.9864 1788.39 -63.924 1802.79 -68.0418C1804.18 -68.4391 1805.5 -68.2282 1806.69 -67.4285C1807.86 -66.6373 1808.54 -65.4814 1808.67 -64.0747L1808.71 -63.5799C1808.91 -61.3453 1807.49 -59.2875 1805.28 -58.6619C1789.91 -54.2834 1773.6 -52.2153 1756.82 -52.8688C1752.66 -53.0267 1748.49 -53.3745 1744.34 -53.8763C1740.1 -54.3874 1735.95 -55.0661 1731.9 -55.8884C1729.05 -56.474 1726.2 -54.6345 1725.56 -51.7953C1724.92 -48.9499 1726.73 -46.1656 1729.6 -45.5816C1733.98 -44.6815 1738.43 -43.9513 1742.88 -43.4145C1747.22 -42.8838 1751.7 -42.5394 1756.25 -42.3724C1766.25 -41.9683 1776.09 -42.4819 1785.69 -43.8429C1787 -44.0029 1788.19 -43.6906 1789.22 -42.9021C1790.24 -42.0915 1790.82 -41.0236 1790.92 -39.7243L1790.97 -39.2149C1791.17 -36.7443 1789.37 -34.5316 1786.89 -34.1805C1776.71 -32.7536 1766.29 -32.2048 1755.69 -32.6207C1750.08 -32.8425 1744.52 -33.32 1739.06 -34.0659C1733.64 -34.8059 1728.16 -35.8205 1722.68 -37.1112C1719.82 -37.7735 1716.92 -36.0177 1716.19 -33.1854C1715.46 -30.3575 1717.2 -27.5175 1720.04 -26.8375C1725.61 -25.538 1731.42 -24.474 1737.46 -23.6494C1743.21 -22.8627 1749.11 -22.3608 1755.08 -22.123C1784.22 -20.9934 1812.14 -26.6571 1837.27 -37.7029C1838.57 -38.2695 1839.91 -38.2486 1841.18 -37.6428C1842.44 -37.058 1843.28 -36.0396 1843.64 -34.6859L1843.75 -34.2013C1844.31 -31.9862 1843.18 -29.7092 1841.06 -28.7721C1814.59 -17.1549 1785.17 -11.1745 1754.54 -12.37C1748.04 -12.632 1741.52 -13.2147 1735.02 -14.1221C1728.45 -15.0454 1722.07 -16.2598 1715.93 -17.7598C1713.1 -18.4589 1710.18 -16.7355 1709.44 -13.9329C1708.68 -11.1025 1710.37 -8.25739 1713.2 -7.55832C1719.88 -5.92675 1726.6 -4.62291 1733.35 -3.69177C1739.99 -2.75732 1746.86 -2.16271 1753.91 -1.87436C1777.16 -0.967446 1799.72 -3.95941 1820.92 -10.2544C1822.22 -10.6353 1823.47 -10.485 1824.61 -9.80891C1825.75 -9.14378 1826.48 -8.13548 1826.76 -6.83662L1826.86 -6.3464C1827.36 -3.99426 1825.92 -1.61183 1823.55 -0.915454C1801.34 5.67226 1777.72 8.79448 1753.36 7.85843L1753.07 7.85746C1746.17 7.57535 1739.24 6.94351 1732.33 5.99333C1725.31 5.0341 1718.38 3.72053 1711.61 2.10693C1708.77 1.43389 1705.86 3.16992 1705.13 6.00373C1704.39 8.82628 1706.11 11.6762 1708.94 12.3531C1716.05 14.054 1723.31 15.4304 1730.67 16.4291C1737.72 17.4061 1744.99 18.0613 1752.48 18.3538L1752.79 18.3737C1798.23 20.14 1841.31 8.36123 1877.92 -13.329C1880.5 -14.8514 1883.04 -16.4285 1885.54 -18.0416C1887.7 -19.436 1890.57 -18.8768 1891.97 -16.7866L1892.23 -16.4022C1892.94 -15.3229 1893.16 -14.1684 1892.88 -12.8945C1892.6 -11.6425 1891.91 -10.6495 1890.82 -9.93817C1887.73 -7.93337 1884.56 -5.98128 1881.37 -4.11865C1843.45 17.9709 1799.04 29.9342 1752.21 28.1076L1751.91 28.1019C1744.88 27.8158 1737.85 27.1968 1730.84 26.2872C1723.71 25.3659 1716.64 24.1173 1709.74 22.5559C1706.89 21.9302 1704 23.6939 1703.3 26.5456C1702.6 29.361 1704.35 32.1888 1707.2 32.8367C1714.43 34.4648 1721.8 35.7639 1729.27 36.734C1736.43 37.6713 1743.79 38.2961 1751.31 38.5983L1751.62 38.6231C1788.76 40.0718 1824.42 33.2354 1856.77 19.7907C1858.08 19.2455 1859.42 19.276 1860.68 19.9152C1861.94 20.5485 1862.75 21.5961 1863.07 22.9541L1863.18 23.428C1863.69 25.6535 1862.51 27.8942 1860.37 28.776C1826.73 42.7543 1789.65 49.8743 1751.06 48.3435C1744.2 48.0747 1737.39 47.5299 1730.63 46.7254C1723.84 45.9131 1717.09 44.848 1710.44 43.4996C1707.57 42.9206 1704.71 44.7764 1704.1 47.626C1703.46 50.4763 1705.28 53.2557 1708.15 53.8354C1715.03 55.2144 1722.04 56.3432 1729.15 57.1852C1736.13 58.0136 1743.24 58.5749 1750.47 58.8527C1778.09 59.9325 1804.98 56.7723 1830.46 49.9675C1831.74 49.6196 1832.98 49.7969 1834.1 50.4775C1835.23 51.1662 1835.93 52.1868 1836.18 53.471L1836.28 53.9827C1836.76 56.3719 1835.24 58.7467 1832.84 59.3851C1806.4 66.4464 1778.54 69.7069 1749.9 68.5812C1743.85 68.3448 1737.84 67.9203 1731.89 67.291C1725.91 66.6744 1719.94 65.8578 1713.99 64.8398C1711.11 64.3512 1708.33 66.2885 1707.78 69.1502C1707.24 72.0166 1709.14 74.7356 1712.03 75.2269C1718.1 76.2574 1724.3 77.1085 1730.6 77.7643C1736.77 78.4103 1743.02 78.8561 1749.33 79.0891C1803.81 81.2119 1855.61 68.0458 1900.4 43.4749C1905.41 40.7214 1910.35 37.8199 1915.2 34.7822C1916.39 34.0321 1917.73 33.8426 1919.08 34.254C1920.43 34.6664 1921.41 35.5509 1921.96 36.8408L1922.15 37.2877C1923.02 39.3732 1922.24 41.7923 1920.28 43.0205C1913.77 47.1007 1907.11 50.9393 1900.28 54.539C1855.05 78.3273 1803.19 90.9602 1748.77 88.8378C1744.18 88.6622 1739.46 88.3564 1734.66 87.9519C1729.9 87.5214 1725.26 87.0194 1720.78 86.4217C1717.89 86.0319 1715.18 88.057 1714.73 90.9312C1714.29 93.8028 1716.29 96.4429 1719.18 96.8394C1724.04 97.4937 1728.85 98.0151 1733.56 98.4344C1738.24 98.8312 1743.12 99.1354 1748.15 99.3368C1802.62 101.468 1854.56 89.3342 1900.23 66.3431C1901.42 65.74 1902.62 65.6548 1903.86 66.0696C1905.1 66.4756 1906.01 67.2897 1906.54 68.4549L1906.74 68.8967C1907.8 71.1494 1906.83 73.8593 1904.56 74.9985C1904.22 75.176 1903.89 75.3339 1903.55 75.5113C1856.65 98.9336 1803.4 111.242 1747.6 109.077C1742.42 109.024 1736.45 108.43 1731.27 108.021C1728.36 107.771 1725.74 109.907 1725.42 112.787C1725.1 115.667 1727.21 118.239 1730.12 118.495C1735.83 118.941 1741.32 119.233 1747.01 119.597C1804.68 121.845 1859.71 109.105 1908.19 84.8958C1915.69 81.1422 1923.03 77.131 1930.21 72.8491C1931.38 72.1409 1932.64 71.9769 1933.94 72.3385C1935.22 72.7137 1936.2 73.5257 1936.78 74.7171L1937 75.1614C1938.06 77.3097 1937.25 79.919 1935.15 81.1871C1925.33 87.0564 1915.18 92.4416 1904.77 97.3132C1856.78 119.805 1802.9 131.489 1746.57 129.302L1746.24 129.294C1743.3 129.112 1740.74 131.327 1740.51 134.238C1740.29 137.136 1742.47 139.645 1745.4 139.813L1745.86 139.829C1797.68 141.845 1847.5 132.485 1892.79 113.99C1894.08 113.464 1895.39 113.497 1896.62 114.103C1897.86 114.706 1898.68 115.693 1899.03 117.008L1899.16 117.487C1899.75 119.746 1898.55 122.099 1896.35 122.993C1855.97 139.468 1812.11 148.899 1766.45 149.755C1763.52 149.809 1761.15 152.205 1761.16 155.104C1761.16 157.999 1763.54 160.306 1766.47 160.253C1820.1 159.258 1871.31 146.783 1917.51 125.167C1924.66 121.816 1931.68 118.273 1938.56 114.498C1939.84 113.801 1941.21 113.708 1942.54 114.239C1943.88 114.754 1944.81 115.738 1945.23 117.093L1945.39 117.575C1946.04 119.707 1945.12 121.972 1943.12 123.057C1936.1 126.908 1928.94 130.535 1921.66 133.941C1882.24 152.381 1839.25 164.354 1794.29 168.478C1791.37 168.747 1789.18 171.324 1789.39 174.212C1789.63 177.099 1792.19 179.227 1795.11 178.95C1838.56 174.966 1880.21 163.873 1918.71 146.805C1919.92 146.255 1921.18 146.233 1922.41 146.727C1923.62 147.226 1924.48 148.115 1924.95 149.338L1925.11 149.796C1925.96 152.091 1924.86 154.679 1922.58 155.68C1894.68 168.045 1865.16 177.376 1834.53 183.21C1831.63 183.76 1829.7 186.533 1830.21 189.387C1830.72 192.233 1833.48 194.108 1836.38 193.556C1870.74 186.995 1903.76 176.171 1934.73 161.651C1936.87 160.652 1939 159.628 1941.12 158.593C1942.34 157.988 1943.61 157.929 1944.87 158.42C1946.12 158.898 1947.02 159.777 1947.49 161.019L1947.68 161.482C1948.53 163.721 1947.51 166.25 1945.33 167.328C1943.18 168.387 1941.05 169.401 1938.91 170.415C1931.51 173.873 1923.84 177.209 1915.96 180.35C1913.21 181.45 1911.85 184.542 1912.9 187.234C1913.97 189.926 1917.07 191.213 1919.8 190.124C1927.62 187.002 1935.47 183.595 1943.31 179.913Z" fill="#333333"/>
</svg>
