<svg width="406" height="434" viewBox="0 0 406 434" fill="none" xmlns="http://www.w3.org/2000/svg">
<path d="M284 -1.52588e-05H405.611V106.087L284 -1.52588e-05Z" fill="#F4F4F4"/>
<path d="M284.693 27.639L405.613 136.122V185.563H284.647L284.693 27.639Z" fill="#F4F4F4"/>
<path d="M405.613 302L284.693 222.414L284.648 185.563H405.613V302Z" fill="#F4F4F4"/>
<path d="M130.153 403H187.109V348.693L130.153 403Z" fill="#F5F5F5"/>
<path d="M129.999 381.664L187.109 330.428V306.931H129.999V381.664Z" fill="#F5F5F5"/>
<path d="M187.111 252L130 289.588V306.826H187.111V252Z" fill="#F5F5F5"/>
<path d="M266 392.114L266 434L305.938 434L266 392.114Z" fill="#F5F5F5"/>
<path d="M281.691 392L319.371 434L336.65 434L336.65 392L281.691 392Z" fill="#F5F5F5"/>
<path d="M377.046 434L349.403 392.001L336.727 392.001L336.727 434L377.046 434Z" fill="#F5F5F5"/>
<path d="M0 211H88V128L0 211Z" fill="#F5F5F5"/>
<path d="M88 76L1.45122e-05 76L0 159L88 76Z" fill="#F5F5F5"/>
</svg>
